<svg xmlns="http://www.w3.org/2000/svg" viewBox="0 0 423.36 137.27"><defs><style>.cls-1{fill:#b71d22;}.cls-2{fill:#231815;}.cls-3{fill:#333;}</style></defs><title>资源 2</title><g id="图层_2" data-name="图层 2"><g id="图层_1-2" data-name="图层 1"><path class="cls-1" d="M100.83,50.65c.87,1.43,1.68,2.66,2.4,3.95s1.49,2.79,2.17,4.22,1.35,2.87,1.88,4.36c.67,1.84,1.27,3.71,1.77,5.61a61.77,61.77,0,0,1,1.4,6.43c.3,2,.37,4.07.48,6.11a53.62,53.62,0,0,1-4.7,24.49,52.77,52.77,0,0,1-10.5,15.39,50.93,50.93,0,0,1-8.93,7.3,50.27,50.27,0,0,1-9.31,4.86c-2.49,1-5.11,1.56-7.67,2.34-3.44,1-7,1.21-10.55,1.55a16.6,16.6,0,0,1-1.75,0,58.27,58.27,0,0,1-16.89-2.48,57,57,0,0,1-8.39-3.35,65.15,65.15,0,0,1-8.15-4.86A54.38,54.38,0,0,1,17.35,121,52.77,52.77,0,0,1,6.72,106.71a58.94,58.94,0,0,1-3.32-8A68.27,68.27,0,0,1,1.07,90.1a50.08,50.08,0,0,1-1-12.71c.13-2.17.34-4.34.46-6.51A48.85,48.85,0,0,1,4.4,55.09a66.61,66.61,0,0,1,5.14-9.87A48.7,48.7,0,0,1,15.17,38a57.14,57.14,0,0,1,5.89-5.25,68,68,0,0,1,5.62-4.18,58.29,58.29,0,0,1,5.27-3c1.56-.81,3.15-1.58,4.78-2.26a44.81,44.81,0,0,1,4.7-1.63c1.91-.55,3.86-1,5.82-1.58-.74-.1-1.48-.23-2.23-.3-3.16-.27-6.34-.43-9.49-.81A14.42,14.42,0,0,1,29,16.66a14.58,14.58,0,0,1-4-3.85c-.57-.85-1.27-1.6-1.86-2.44-.35-.51-.84-1.07-.32-1.74a1.6,1.6,0,0,1,1.86-.69,7,7,0,0,1,3.08,1.73,10.07,10.07,0,0,0,2.93,1.59,14.64,14.64,0,0,0,7.87.75c-.8-1.19-1.57-2.32-2.31-3.47C34.75,6.1,35.55,2,38.09.79,41.2-.74,45-.09,46.78,3.13c1.46,2.67-.21,5.48-3.28,5.29-.39,0-.79,0-1.43,0,1.61,1.76,3.11,3.28,5.47,3.43A20.07,20.07,0,0,1,51,12a13.91,13.91,0,0,1,3.54,1.52,8.8,8.8,0,0,0,5.63,1c2.47-.27,5-.19,7.46-.26a7.51,7.51,0,0,1,7.67,4.47,27.87,27.87,0,0,1,.74,2.69c.14.39.5.88.84,1A1.51,1.51,0,0,0,78,21.83a2.28,2.28,0,0,0,.56-1.3,2.05,2.05,0,0,1,1.85-2,2.6,2.6,0,0,1,2.55.94c1.72,1.94,3.55,3.78,5.33,5.68.84.9.7,3.54-.21,4.6A5.79,5.79,0,0,1,83.7,32c-3,0-5.91-.08-8.86-.14-.19,0-.38,0-.57,0l0,.27c1.65.35,3.3.74,5,1.05,1.13.21,2.28.54,2.52,1.74s.84,2.41,1.06,3.64a3.41,3.41,0,0,1-3,3.94l-1.06.22c-.18-.59-.36-1.27-.61-1.91a1.46,1.46,0,0,0-.59-.63,30.66,30.66,0,0,0-12.12-3.94,49,49,0,0,0-6.75-.45A44.66,44.66,0,0,0,44.6,38.1a51.75,51.75,0,0,0-6.38,2.84A46.88,46.88,0,0,0,32.91,44a34.94,34.94,0,0,0-4,3.32,63.74,63.74,0,0,0-4.58,4.56,44.79,44.79,0,0,0-3.11,4.28A46.49,46.49,0,0,0,13.9,75a35.84,35.84,0,0,0-.39,9.5c.14,1.46.25,2.92.43,4.37a40.45,40.45,0,0,0,2.38,9.26,40.15,40.15,0,0,0,4.94,9.67c1.52,2.1,3.24,4.06,4.9,6.06a33.08,33.08,0,0,0,7.56,6.52c2.3,1.5,4.85,2.64,7.28,3.95a36,36,0,0,0,11.84,3.58,50.22,50.22,0,0,0,7.63.37,41.29,41.29,0,0,0,6.22-.42A53.07,53.07,0,0,0,73,126.4a37.34,37.34,0,0,0,5.08-1.76,51.12,51.12,0,0,0,5.44-2.87,48.5,48.5,0,0,0,4.92-3.34,46.28,46.28,0,0,0,9.25-9.62c1.56-2.31,2.83-4.82,4.17-7.28a37.81,37.81,0,0,0,3.92-12.8A43.05,43.05,0,0,0,106,78a72.78,72.78,0,0,0-1.36-8.33,40.69,40.69,0,0,0-5.75-14.26c-.14-.2-.27-.4-.41-.59-1-1.29-1-1.26.31-2.27C99.51,52,100.12,51.32,100.83,50.65ZM71.32,21c-.69-.5-1-.94-1.47-1-.65-.12-1.08.33-1.08,1s.42,1.13,1.07,1C70.27,21.89,70.62,21.45,71.32,21Z"/><path class="cls-1" d="M41.1,83.48,58.58,65.95,75.67,83,58.16,100.54Z"/><path class="cls-2" d="M134.42,49.58h14.68L150.43,43h-21V39.34h47V43h-22l-1.54,6.57h18.35V83.83h-3.67V80.16H138.09v3.67h-3.67Zm33,3.49H138.09v10h29.37ZM138.09,76.82h29.37V66.58H138.09Z"/><path class="cls-2" d="M178.44,77.44h15.67V37.58h4V77.41h8.44V37.58h4V77.41h15.64v3.67H178.55V77.41ZM184,47q4,9.32,7.67,19.79l-4,1.8q-3.23-10.17-7.34-20Zm28.19,20.3a194.82,194.82,0,0,0,8.11-19.79L224.21,49q-4.48,11.53-8.55,19.82Z"/><path class="cls-2" d="M229.24,78.88h20.45V67.09H232.44V63.42h17.25V56.85H237.14V53.47q-3.41,2.17-7.34,4.33a27.2,27.2,0,0,0-2.42-3.67,55.06,55.06,0,0,0,22.72-17.25h5.25l-1.1,1.36a49.56,49.56,0,0,0,21.7,15.23q-1.28,1.84-2.57,3.85A50.7,50.7,0,0,1,266,53.66v3.27H253.54v6.75h17.14v3.67H253.51V79.13h20.56V82.8H229.24Zm5.25-8.81,2.86-2.28q3.67,3.67,6.9,7.34L241,77.74A96.1,96.1,0,0,0,234.49,70.07Zm17-29a58.73,58.73,0,0,1-14.32,12.3h28.3A63,63,0,0,1,251.67,41Zm6.86,34.58a66.08,66.08,0,0,0,6.75-8l3.38,2.17q-3.38,4.18-7.08,8Z"/><path class="cls-2" d="M278.54,39.08H302v3.08H278.54Zm3.67,44.86H279V59.24h23V79.35a4.11,4.11,0,0,1-4.77,4.55h-3.67a23.6,23.6,0,0,0-.73-3.34,28.79,28.79,0,0,1,3.67.18,1.91,1.91,0,0,0,2.28-2.09V62.25H282.21Zm-1.32-38.62h19.05V57h-3v-1.1H284.23v1.25H281V45.32ZM283,69.77h7.34q2.75-5,3.67-6.9l2.86,1.36q-2,3.23-3.67,5.54h4.41v2.9h-5.73v10H289V72.86h-5.87V70Zm.88-5.25,2.31-1.43a37.11,37.11,0,0,1,3.38,5l-2.5,1.54q-1.54-2.42-3-4.88Zm13-16.3H284.23v4.7H296.9Zm21.36,21.55,3.23-.92q2.17,7.34,3.67,13.88l-3.38.88q-.29-1.28-.62-2.61l-17.22,2-.73-4,8.92-.62V65.51h-4v1.58h-3.67V45.84h7.34V37.21h3.49v8.63h7.34V65.51h-7.34V78.36l4.81-.33A63,63,0,0,0,318.3,70Zm-10.35-7.64h4V49h-4Zm11.38,0V49h-3.82V62.32h4Z"/><path class="cls-2" d="M350.13,41.65l2.9,1.87a99.11,99.11,0,0,1-6.57,8.7h3.67v3.19h-6.31q-1.95,2.17-4,4.18h7.93v2.9l-6.24,6.13v.88L350.16,68a27.75,27.75,0,0,1-.18,3.34l-8.44,1.51v5.25A4.74,4.74,0,0,1,336,83.79H330.6a17.16,17.16,0,0,0-.48-3.67q2.28.26,5.18.29a2.2,2.2,0,0,0,2.79-2.72V73.44l-9.84,1.87-.59-3.67L338.09,70V67.61l5.07-5h-6.46q-4,3.67-8,6.75a27.61,27.61,0,0,0-2.28-2.75q2.79-2,5.21-4h-4v-3H335q2.28-2,4.41-4.18H326.89V52.15h9.51V47.34h-7.56V44.15h7.56V37.58h3.49v6.57h5.95v3.19h-5.95v4.92h2.35A78.63,78.63,0,0,0,350.13,41.65Zm-1.43,19.49a97.13,97.13,0,0,0,8.74-23.64l3.67.88q-1,4-2.2,7.86H374v3.67h-4.77A41,41,0,0,1,363,71.28a29.66,29.66,0,0,0,11.53,9.4,42.37,42.37,0,0,0-2.28,3.67,38,38,0,0,1-11.49-9.87,41.92,41.92,0,0,1-12.44,10.24l-2.35-3.19A37.19,37.19,0,0,0,358.83,71a36.45,36.45,0,0,1-4.59-12.74q-1.1,2.35-2.28,4.66l-3.23-1.76Zm7.75-8.48a41.7,41.7,0,0,0,4.41,15.2,37.59,37.59,0,0,0,4.66-18h-8Z"/><path class="cls-2" d="M376.23,67.35H398.8V64.63L408,59.42H385.33V55.75h28.3V60l-11,6.31v1h20.74V71H402.84v7.34a5.07,5.07,0,0,1-5.73,5.69h-7.34a18.35,18.35,0,0,0-.59-4.11q3.67.4,7.34.44a2.28,2.28,0,0,0,2.5-2.64V71.28H376.45V67.61Zm1.65-19.68h44.05V57.4h-3.67V51.16H381.88V57.4h-3.67V47.64Zm3.67-7.86,2.86-2.09q2.94,3.23,5.8,7L386.95,47a75.62,75.62,0,0,0-5.29-7.34Zm13-1.43,3.12-1.84a69.75,69.75,0,0,1,5.43,7.86l-3.49,2a66.08,66.08,0,0,0-5-8.08Zm13.69,6.5a73.42,73.42,0,0,0,6.09-7.34l3.49,2.57q-3.12,3.67-6.72,7.34Z"/><path class="cls-3" d="M155.05,91.32a27.61,27.61,0,0,0,11,7.75l-.77,1.14a29,29,0,0,1-10.76-7.56,34.14,34.14,0,0,1-10.83,7.64L143,99.14a33,33,0,0,0,11-7.82Zm-7.34,7h13.62v1.25H155.2v4.15h9.32v1.47H155.2v7.34h3.19a34.14,34.14,0,0,0,2.5-5.65l1.25.48a29.81,29.81,0,0,1-2.31,5.18h5.62v1.32h-22v-1.32H149a27.75,27.75,0,0,0-2.28-5l1.25-.48a27.05,27.05,0,0,1,2.35,5.47h3.3v-7.34h-9.18v-1.47h9.36V99.61h-6Z"/><path class="cls-3" d="M168.67,92.16h12v1.28h-12Zm8,22-.33-1.25h1.87c.51,0,.81-.26.81-.73v-8.44h-8.44v10.72H169.3V102.55h11v10a1.47,1.47,0,0,1-1.65,1.69Zm-6.42-18.87h9v5.29h-8.85ZM178,99.47v-3h-6.35v3Zm-6.35,8.85h3.67a24.52,24.52,0,0,0,1.32-3.67l1,.4a24.56,24.56,0,0,1-1.25,3.23h1.84v1.1h-2.68v4.77h-1.17v-4.77h-2.75Zm1.39-3.38a16.78,16.78,0,0,1,1.32,2.83l-1,.26a17.25,17.25,0,0,0-1.32-2.79Zm8.81-9.21h3.67V91.13H187v4.59h3.67v9.87H187v6.24l2.9-.66q-.51-1.8-1.1-3.38l1.1-.37a46.84,46.84,0,0,1,2,6.53l-1.17.29-.48-1.91a80.47,80.47,0,0,1-8.37,1.65l-.48-1.43,4.15-.62v-6.39h-3.67Zm3.67,8.63V97h-2.57v7.34Zm3.67,0V97h-2.61v7.34Z"/><path class="cls-3" d="M194.92,114.19l-.29-1.28h1.91q1.14,0,1.17-1.25v-6.42q-1.65.7-3.38,1.25l-.37-1.36a32.19,32.19,0,0,0,3.67-1.25V97.26h-3.27V95.91h3.27V91.1H199v4.85h2.86V97.3H199v5.87q1.43-.66,2.94-1.54V103q-1.28.73-2.94,1.51v7.6a1.84,1.84,0,0,1-2.06,2.09ZM203,95h6.28V91.28h1.39V95H217v1.32H210.7v4.59H216v1.25a17.91,17.91,0,0,1-4.66,7.34,26.28,26.28,0,0,0,6.46,3.67l-.73,1.14a27.35,27.35,0,0,1-6.72-4.07A24.26,24.26,0,0,1,203,114.3l-.66-1.17a23.38,23.38,0,0,0,7.34-3.67,16.26,16.26,0,0,1-4.48-7.34h-1.39v-1.32h5.84V96.24H203Zm3.16,7.34a14.68,14.68,0,0,0,4.11,6.61,17,17,0,0,0,4.33-6.57Z"/><path class="cls-3" d="M220.73,97.3h10.13V91h1.39V97.3h10.17v1.32h-8.59a27.72,27.72,0,0,0,9.36,12l-.92,1.14a30.84,30.84,0,0,1-9.73-13.14h-.26v15.82h-1.39V98.62h-.26a27.2,27.2,0,0,1-10,13.33l-.77-1.21a25.7,25.7,0,0,0,9.47-12.11h-8.63ZM236.36,91A35,35,0,0,1,240,95.36l-1.1.77a32.67,32.67,0,0,0-3.67-4.41Z"/><path class="cls-3" d="M247.08,93.63h3.67V91.17h1.32v2.46h2.86v1.28h-2.86v3h1.8a34.36,34.36,0,0,0,3.67-5.69l1.14.55a42.36,42.36,0,0,1-3.34,5.14h2.28v1.32h-3.27a31.69,31.69,0,0,1-2.42,2.64h4.59v1a27.2,27.2,0,0,1-3.12,3.19v1.58q2.53-.4,4.77-1V108q-2.13.51-4.77.92v3.34a1.69,1.69,0,0,1-1.91,1.95h-2.64l-.37-1.25H251c.73,0,1.06-.4,1.06-1.17V109q-2.35.29-5.87.66l-.4-1.25q3.3-.22,6.09-.55v-2.06a19.64,19.64,0,0,0,2.79-2.61H250.5a29.11,29.11,0,0,1-4.26,2.94l-.84-.88a34.84,34.84,0,0,0,3-1.95h-1.25V102H250a28.74,28.74,0,0,0,2.72-2.64h-6.94V97.89h4.77v-3h-3.67Zm21.22,20.78a27.2,27.2,0,0,1-4.92-6,19.16,19.16,0,0,1-6.06,6l-.81-1.25a17,17,0,0,0,6.13-6.06,29.37,29.37,0,0,1-2.75-7.34,21.77,21.77,0,0,1-1.84,3.12l-.88-1a25.7,25.7,0,0,0,3.67-11l1.36.26a34.36,34.36,0,0,1-.77,3.89h6.86v1.32h-1.8a24.93,24.93,0,0,1-2.39,10.83,23.42,23.42,0,0,0,5,6.09Zm-7.12-18-.55,1.65a31.46,31.46,0,0,0,2.72,7.64,23.53,23.53,0,0,0,1.95-9.29Z"/><path class="cls-3" d="M276,100.35h13.77v1.21a52.05,52.05,0,0,1-5.95,3.3v1.58h10v1.32h-9.91v4.81a1.76,1.76,0,0,1-2,1.95H278.8l-.37-1.32h3a1,1,0,0,0,1.14-1.17V107.8H272v-1.32h10.5V104.2a56.2,56.2,0,0,0,5.4-2.64H276Zm17.44-4v5.4h-1.39V97.89H273.66V102h-1.39V96.38h14.68A30.18,30.18,0,0,0,290,90.88l1.39.51a27.82,27.82,0,0,1-2.94,5Zm-18-5.1a33,33,0,0,1,2.72,4.11l-1.25.59a30.32,30.32,0,0,0-2.75-4.11Zm6.28-.48a35.61,35.61,0,0,1,2.42,4.26l-1.25.66a29.84,29.84,0,0,0-2.46-4.29Z"/><path class="cls-2" d="M301.92,91.93h1.44v7.68a4.54,4.54,0,0,1,4.34-3,4.86,4.86,0,0,1,4.13,2,7.28,7.28,0,0,1,1.37,4.54,7.36,7.36,0,0,1-1.37,4.58,5,5,0,0,1-4.18,2,4.45,4.45,0,0,1-4.37-2.78v2.45h-1.37Zm2.5,7.44a5.88,5.88,0,0,0-1.1,3.72v.29a5.89,5.89,0,0,0,1,3.6,3.64,3.64,0,0,0,3.14,1.54,3.78,3.78,0,0,0,3.24-1.58,6.33,6.33,0,0,0,1-3.74,6.11,6.11,0,0,0-1-3.72,3.8,3.8,0,0,0-3.26-1.58A3.56,3.56,0,0,0,304.42,99.37Z"/><path class="cls-2" d="M314.36,97h1.58L320,107.33,324,97h1.58l-6.84,17.16h-1.56l2.09-5.06Z"/><path class="cls-2" d="M328.3,97h1.44v14q0,3.14-3.24,3.14h-1.15V112.9h1.06a1.7,1.7,0,0,0,1.9-1.94Zm1.61-4.1a1,1,0,0,1,.34.84,1.28,1.28,0,0,1-.34.86,1.31,1.31,0,0,1-.89.34,1.28,1.28,0,0,1-.86-.34,1.18,1.18,0,0,1-.36-.86,1,1,0,0,1,.36-.84,1.18,1.18,0,0,1,.86-.36A1.21,1.21,0,0,1,329.91,92.89Z"/><path class="cls-2" d="M332.62,97h1.73l3.55,4.78L341.45,97h1.7l-4.44,5.86,5,6.55H342l-4.06-5.47-4.08,5.47h-1.73l5-6.55Z"/><path class="cls-2" d="M355.11,93.29a4,4,0,0,1,1.34,3.07,4.15,4.15,0,0,1-.7,2.38,4,4,0,0,1-2.11,1.46v.1a4.15,4.15,0,0,1,2.4,1.51,4.43,4.43,0,0,1,1,2.9,4.64,4.64,0,0,1-1.54,3.6,7.9,7.9,0,0,1-9,0,4.59,4.59,0,0,1-1.54-3.6,4.43,4.43,0,0,1,1-2.9,4,4,0,0,1,2.42-1.51v-.1a3.77,3.77,0,0,1-2.83-3.84,3.93,3.93,0,0,1,1.34-3.07,6.84,6.84,0,0,1,8.21,0ZM347.55,102a3.74,3.74,0,0,0,0,5.38,5,5,0,0,0,3.48,1.1,5.11,5.11,0,0,0,3.5-1.1,3.51,3.51,0,0,0,1.1-2.69,3.4,3.4,0,0,0-1.15-2.69,5.86,5.86,0,0,0-6.91,0Zm.36-7.85a2.9,2.9,0,0,0-.94,2.23,3.08,3.08,0,0,0,.86,2.28,4.43,4.43,0,0,0,3.17,1,4.48,4.48,0,0,0,3.17-1,3.08,3.08,0,0,0,.86-2.28,2.9,2.9,0,0,0-.94-2.23,4.43,4.43,0,0,0-3.1-1A4.38,4.38,0,0,0,347.91,94.18Z"/><path class="cls-2" d="M362.16,107.33a1.08,1.08,0,0,1,.36.86,1.2,1.2,0,0,1-.38.86,1.25,1.25,0,0,1-.84.34,1.13,1.13,0,0,1-.86-.36,1.15,1.15,0,0,1-.36-.84,1.08,1.08,0,0,1,.36-.86,1.12,1.12,0,0,1,.86-.34A1.17,1.17,0,0,1,362.16,107.33Z"/><path class="cls-2" d="M374.76,97.73a4.71,4.71,0,0,1,1.7,3.31H375a3.54,3.54,0,0,0-1.25-2.35,4.15,4.15,0,0,0-2.64-.79A3.71,3.71,0,0,0,368,99.41a7.19,7.19,0,0,0,0,7.66,3.71,3.71,0,0,0,3.14,1.42q3.46,0,4-3.53h1.42a5.66,5.66,0,0,1-1.78,3.58,5.35,5.35,0,0,1-3.62,1.2,5.18,5.18,0,0,1-4.27-1.87,7,7,0,0,1-1.42-4.58,7.2,7.2,0,0,1,1.46-4.66,5.09,5.09,0,0,1,4.25-2A5.75,5.75,0,0,1,374.76,97.73Z"/><path class="cls-2" d="M388.64,98.62a7.67,7.67,0,0,1,0,9.14,5.89,5.89,0,0,1-8.78,0,7,7,0,0,1-1.51-4.56,6.87,6.87,0,0,1,1.54-4.58,5.34,5.34,0,0,1,4.37-2A5.46,5.46,0,0,1,388.64,98.62Zm-7.73.91a6.62,6.62,0,0,0,0,7.32,4.25,4.25,0,0,0,6.7,0,6,6,0,0,0,1.1-3.65,5.93,5.93,0,0,0-1.1-3.67,4.25,4.25,0,0,0-6.7,0Z"/><path class="cls-2" d="M401.62,99.2a4.83,4.83,0,0,1,1.66-1.9,3.86,3.86,0,0,1,2.26-.65,4.08,4.08,0,0,1,3.12,1.22,4.89,4.89,0,0,1,1.13,3.41v8.11h-1.44v-7.92a4.06,4.06,0,0,0-.72-2.64,3.06,3.06,0,0,0-2.47-.94,2.85,2.85,0,0,0-2.26,1,3.63,3.63,0,0,0-.91,2.57v7.9h-1.46v-7.92q0-3.58-3.1-3.58A2.86,2.86,0,0,0,395.09,99a4,4,0,0,0-1,2.74v7.63h-1.44V97h1.44v1.87a4,4,0,0,1,3.6-2.21A3.74,3.74,0,0,1,401.62,99.2Z"/></g></g></svg>