<svg id="图层_1" data-name="图层 1" xmlns="http://www.w3.org/2000/svg" xmlns:xlink="http://www.w3.org/1999/xlink" viewBox="0 0 127.45 49.16"><defs><style>.cls-1{fill:none;}.cls-2{clip-path:url(#clip-path);}.cls-3{fill:url(#未命名的渐变);}.cls-4{clip-path:url(#clip-path-2);}.cls-5{fill:url(#未命名的渐变_2);}.cls-6{clip-path:url(#clip-path-3);}.cls-7{fill:url(#未命名的渐变_3);}.cls-8{clip-path:url(#clip-path-4);}.cls-9{fill:url(#未命名的渐变_4);}.cls-10{clip-path:url(#clip-path-5);}.cls-11{fill:#dc7421;}.cls-12{fill:#cd281c;}.cls-13{clip-path:url(#clip-path-6);}.cls-14{fill:url(#未命名的渐变_5);}.cls-15{clip-path:url(#clip-path-7);}.cls-16{fill:url(#未命名的渐变_6);}.cls-17{clip-path:url(#clip-path-8);}.cls-18{fill:url(#未命名的渐变_7);}.cls-19{clip-path:url(#clip-path-9);}.cls-20{fill:url(#未命名的渐变_8);}.cls-21{fill:#231815;}.cls-22{fill:#333;}</style><clipPath id="clip-path" transform="translate(-26.17 -78.07)"><path class="cls-1" d="M47.75,102.27c3.71-1.85,5.76,1.61,5.05,4.52-0.56,2.32-2.54,4.13-5.33,5.16-4.89,1.66-12.82.14-13,.06l5.87,8.69c0.32,0.08,10.39-.13,14.29-4.53,3.53-3.36,4.93-9.82,2.34-13.37a6.61,6.61,0,0,0-5.09-2.27,5.44,5.44,0,0,0-4.17,1.74"/></clipPath><radialGradient id="未命名的渐变" cx="1.27" cy="170.04" r="0.23" gradientTransform="matrix(0, -29.4, -29.4, 0, 5038.66, 144.94)" gradientUnits="userSpaceOnUse"><stop offset="0" stop-color="#eb5e16"/><stop offset="1" stop-color="#bf1a20"/></radialGradient><clipPath id="clip-path-2" transform="translate(-26.17 -78.07)"><path class="cls-1" d="M40.15,93.92c-2.94,3.9-2.65,9.53.49,12.61a5.36,5.36,0,0,0,8.09-.42c-3.85.82-5.9-1-5.68-4,0.17-2.38,1.92-4,4.78-5.12a26.36,26.36,0,0,1,13.94-1l-6.08-8.17H55.27c-1.94,0-10.24.35-15.12,6.11"/></clipPath><radialGradient id="未命名的渐变_2" cx="-3.07" cy="168.57" r="0.23" gradientTransform="matrix(0, 20.83, 20.83, 0, -3456.17, 165.34)" gradientUnits="userSpaceOnUse"><stop offset="0" stop-color="#f0bf1b"/><stop offset="0.01" stop-color="#f0bf1b"/><stop offset="1" stop-color="#c4641a"/></radialGradient><clipPath id="clip-path-3" transform="translate(-26.17 -78.07)"><path class="cls-1" d="M61.39,93.05c0.89,1.55,1.84,3.07,2.79,4.6-2-.42-3.69-0.69-5-0.83-4.39-.47-5.71.26-5.71,0.26a64.57,64.57,0,0,1,8.37,1.33,32.23,32.23,0,0,1,8.33,3.38l-6-8.93Z"/></clipPath><linearGradient id="未命名的渐变_3" x1="-0.91" y1="170.52" x2="-0.69" y2="170.52" gradientTransform="matrix(73.83, 0, 0, -73.83, 94.67, 12609.16)" gradientUnits="userSpaceOnUse"><stop offset="0" stop-color="#e28311"/><stop offset="0.2" stop-color="#e28311"/><stop offset="0.96" stop-color="#c4641a"/><stop offset="1" stop-color="#c4641a"/></linearGradient><clipPath id="clip-path-4" transform="translate(-26.17 -78.07)"><path class="cls-1" d="M32.1,115.33l2.9-.13c-0.9-1.62-1.89-3-2.73-4.6a26.72,26.72,0,0,0,5.07.78,26.86,26.86,0,0,0,5.34,0,16.72,16.72,0,0,0,1.85-.31c-1.17,0-2.66-.11-4.39-0.32A44.9,44.9,0,0,1,34,109.58a35.11,35.11,0,0,1-5.92-2.09,20.79,20.79,0,0,1-1.94-1Z"/></clipPath><linearGradient id="未命名的渐变_4" x1="0.32" y1="171.13" x2="0.55" y2="171.13" gradientTransform="matrix(81.17, 0, 0, -81.17, -26.17, 13922.63)" gradientUnits="userSpaceOnUse"><stop offset="0" stop-color="#c4641a"/><stop offset="0.07" stop-color="#c4641a"/><stop offset="0.93" stop-color="#e28311"/><stop offset="1" stop-color="#e28311"/></linearGradient><clipPath id="clip-path-5" transform="translate(-26.17 -78.07)"><rect class="cls-1" x="26.17" y="82.27" width="44.03" height="38.66"/></clipPath><clipPath id="clip-path-6" transform="translate(-26.17 -78.07)"><path class="cls-1" d="M56.55,82.27a5.9,5.9,0,0,0-3,1.15,30.3,30.3,0,0,0-4,3.07,7.52,7.52,0,0,1,2.47-1,12.75,12.75,0,0,1,2.55-.16,9.63,9.63,0,0,0,2.05-.13,3.64,3.64,0,0,0,1.7-.64c0.65-.79-0.15-1.83-0.79-2.12a2.43,2.43,0,0,0-1-.22h0Z"/></clipPath><linearGradient id="未命名的渐变_5" x1="-2.3" y1="169.05" x2="-2.07" y2="169.05" gradientTransform="matrix(33.48, 0, 0, -33.48, 129.81, 5743.36)" gradientUnits="userSpaceOnUse"><stop offset="0" stop-color="#056191"/><stop offset="1" stop-color="#2986c9"/></linearGradient><clipPath id="clip-path-7" transform="translate(-26.17 -78.07)"><path class="cls-1" d="M42.37,86.19a15.86,15.86,0,0,0-3.73,5.2,15.32,15.32,0,0,0-1.27,5.92,17,17,0,0,1,3.14-6.49,18,18,0,0,1,2.71-2.66c1.58-1.44,6.36-2.52,6.42-4.81a0.82,0.82,0,0,0-.83-0.79H48.67c-2.64,0-6,3.36-6.3,3.62"/></clipPath><radialGradient id="未命名的渐变_6" cx="1.76" cy="171.04" r="0.23" gradientTransform="matrix(-31.42, 0, 0, 31.42, 96.11, -5286.76)" xlink:href="#未命名的渐变_5"/><clipPath id="clip-path-8" transform="translate(-26.17 -78.07)"><path class="cls-1" d="M34.59,86.8c-2,1.79-2.45,6.84-2.46,7.22a14.41,14.41,0,0,0,1,6.8c1.15,2.33,3.49,4.66,4.51,4.92a11.85,11.85,0,0,1-3.18-7.22,10.38,10.38,0,0,1,0-1.72A13.36,13.36,0,0,1,34.62,95a21.46,21.46,0,0,1,1-3.48c0.82-1.82,1.68-3.79.68-4.76a1,1,0,0,0-.75-0.32,1.76,1.76,0,0,0-.94.32"/></clipPath><radialGradient id="未命名的渐变_7" cx="0.78" cy="170.76" r="0.23" gradientTransform="matrix(0, 56.21, 56.21, 0, -9564.91, 49.18)" gradientUnits="userSpaceOnUse"><stop offset="0" stop-color="#2986c9"/><stop offset="0.03" stop-color="#2986c9"/><stop offset="0.96" stop-color="#056191"/><stop offset="1" stop-color="#056191"/></radialGradient><clipPath id="clip-path-9" transform="translate(-26.17 -78.07)"><path class="cls-1" d="M29.26,104a5.1,5.1,0,0,0,1.89,2.7,10.39,10.39,0,0,0,4.38,1.94,12.88,12.88,0,0,0,5.84-.24,10.89,10.89,0,0,1-5.56-1.61A13.42,13.42,0,0,1,33.5,105a17.78,17.78,0,0,1-1.58-1.91,2.09,2.09,0,0,0-1.52-.69c-0.72,0-1.33.46-1.14,1.64"/></clipPath><linearGradient id="未命名的渐变_8" x1="0.29" y1="170.89" x2="0.52" y2="170.89" gradientTransform="matrix(53.71, 0, 0, -53.71, -12.63, 9206)" gradientUnits="userSpaceOnUse"><stop offset="0" stop-color="#2986c9"/><stop offset="0.99" stop-color="#056191"/><stop offset="1" stop-color="#056191"/></linearGradient></defs><title>logo</title><g class="cls-2"><rect class="cls-3" x="33.9" y="95.8" width="26.32" height="29.61" transform="translate(-98.26 48.41) rotate(-74.55)"/></g><g class="cls-4"><rect class="cls-5" x="38.89" y="85.95" width="21.2" height="24.72" transform="matrix(0.01, -1, 1, 0.01, -75.38, 68.94)"/></g><g class="cls-6"><rect class="cls-7" x="27.33" y="14.8" width="16.7" height="8.93"/></g><g class="cls-8"><rect class="cls-9" y="28.39" width="18.36" height="8.88"/></g><g class="cls-10"><polygon class="cls-11" points="36.1 11.74 33.3 11.91 31.89 9.46 34.41 9.06 36.1 11.74"/><polygon class="cls-12" points="12.21 42.67 9.56 42.86 8.12 40.43 10.63 40.26 12.21 42.67"/></g><g class="cls-13"><rect class="cls-14" x="49.3" y="81.51" width="10" height="5.75" transform="translate(-39.57 -67.75) rotate(-9.67)"/></g><g class="cls-15"><rect class="cls-16" x="34.28" y="81.36" width="18.44" height="17.11" transform="translate(-82.45 16.41) rotate(-66.8)"/></g><g class="cls-17"><rect class="cls-18" x="29.71" y="86.07" width="10" height="20.07" transform="translate(-47.06 -67.69) rotate(-13.11)"/></g><g class="cls-19"><rect class="cls-20" x="2.91" y="24.32" width="12.3" height="6.7"/></g><path class="cls-21" d="M74.88,96.16h4l0.36-1.79H73.51v-1H86.3v1H80.35l-0.42,1.79h5v9.33H83.89v-1h-8v1H74.88V96.16Zm9,0.95h-8v2.73h8V97.11Zm-8,6.47h8v-2.79h-8v2.79Z" transform="translate(-26.17 -78.07)"/><path class="cls-21" d="M86.87,103.75h4.22V92.89h1.1v10.85h2.3V92.89h1.1v10.85h4.26v1h-13v-1Zm1.52-8.28q1.08,2.54,2.09,5.39l-1.08.49q-0.88-2.77-2-5.45ZM96.07,101a53.07,53.07,0,0,0,2.21-5.39L99.34,96q-1.22,3.14-2.33,5.4Z" transform="translate(-26.17 -78.07)"/><path class="cls-21" d="M100.71,104.14h5.57v-3.21h-4.7v-1h4.7V98.14h-3.42V97.22q-0.93.59-2,1.18a7.41,7.41,0,0,0-.66-1,15,15,0,0,0,6.19-4.7h1.43l-0.3.37a13.5,13.5,0,0,0,5.91,4.15q-0.35.5-.7,1.05a13.81,13.81,0,0,1-2-1v0.89h-3.4V100H112v1h-4.68v3.21h5.6v1H100.71v-1Zm1.47-2.4,0.78-.62q1,1,1.88,2l-0.89.71Q103.15,102.81,102.18,101.74Zm4.64-7.91a16,16,0,0,1-3.9,3.35h7.71A17.17,17.17,0,0,1,106.82,93.83Zm1.87,9.42a18,18,0,0,0,1.8-2.16l0.92,0.59q-0.92,1.14-1.93,2.19Z" transform="translate(-26.17 -78.07)"/><path class="cls-21" d="M114.17,93.3h6.4v0.84h-6.4V93.3Zm1,12.22h-0.87V98.79h6.24v5.48a1.12,1.12,0,0,1-1.3,1.24h-1a6.43,6.43,0,0,0-.2-0.91q0.63,0.05,1,.05a0.52,0.52,0,0,0,.62-0.57V99.61h-4.51v5.91ZM114.81,95H120v3.17h-0.87V97.87h-3.44v0.34h-0.87V95Zm0.57,6.66h2q0.75-1.35,1-1.88l0.78,0.37q-0.54.88-1,1.51h1.2v0.79h-1.59v2.73H117V102.5h-1.6v-0.79Zm0.24-1.43,0.63-.39a10.11,10.11,0,0,1,.85,1.35l-0.68.42Q116,100.95,115.61,100.28Zm3.51-4.44h-3.44v1.25h3.44V95.84Zm5.82,5.87,0.88-.25q0.59,2,1,3.78l-0.92.24q-0.08-.35-0.17-0.71l-4.69.54-0.2-1.09,2.43-.17V100.5h-1.09v0.43h-1V95.14h2V92.79h0.92v2.35h2v5.36h-2V104l1.31-.09Q125.26,102.83,124.94,101.71Zm-2.76-2.08h1.09V96h-1.09v3.63Zm3.1,0V96h-1.09v3.63h1.09Z" transform="translate(-26.17 -78.07)"/><path class="cls-21" d="M133.64,94l0.79,0.51a27,27,0,0,1-1.79,2.37h1v0.87h-1.72q-0.53.59-1.08,1.14H133v0.79l-1.7,1.67v0.24l2.35-.42q0,0.5-.05.91l-2.3.41v1.43a1.29,1.29,0,0,1-1.52,1.56l-1.46,0q-0.05-.42-0.13-1,0.62,0.07,1.41.08a0.6,0.6,0,0,0,.76-0.74v-1.16l-2.68.51-0.16-1,2.84-.45V101.1l1.38-1.37h-1.76q-1.09,1-2.18,1.84a7.52,7.52,0,0,0-.62-0.75q0.76-.54,1.42-1.09h-1.09V98.9h2q0.62-.55,1.2-1.14h-3.4V96.89h2.59V95.55h-2.06V94.68h2.06V92.89h0.95v1.79h1.62v0.87h-1.62v1.34h0.64A21.42,21.42,0,0,0,133.64,94Zm-0.39,5.31a26.46,26.46,0,0,0,2.38-6.44l1,0.24q-0.26,1.08-.6,2.14h4.1V96.2h-1.29a11.18,11.18,0,0,1-1.66,5.83,8.08,8.08,0,0,0,3.14,2.56q-0.37.54-.62,1a10.34,10.34,0,0,1-3.13-2.69,11.42,11.42,0,0,1-3.44,2.83q-0.24-.34-0.64-0.87A10.13,10.13,0,0,0,136,102a9.93,9.93,0,0,1-1.25-3.47q-0.3.64-.62,1.27Q133.67,99.54,133.25,99.32ZM135.36,97a11.36,11.36,0,0,0,1.2,4.14,10.24,10.24,0,0,0,1.27-4.9h-2.18Q135.52,96.58,135.36,97Z" transform="translate(-26.17 -78.07)"/><path class="cls-21" d="M140.75,101h6.15v-0.74l2.51-1.42h-6.18v-1h7.71V99l-3,1.72V101h5.65v1H148v2a1.38,1.38,0,0,1-1.56,1.55l-2,0q0-.45-0.16-1.12,1.05,0.11,2,.12a0.62,0.62,0,0,0,.68-0.72v-1.79h-6.15v-1Zm0.45-5.36h12v2.65h-1v-1.7h-9.91v1.7h-1V95.63Zm1-2.14,0.78-.57q0.8,0.88,1.58,1.91l-0.89.63A20.6,20.6,0,0,0,142.23,93.48Zm3.55-.39,0.85-.5q0.8,1.05,1.48,2.14l-0.95.54Q146.6,94.25,145.78,93.09Zm3.73,1.77a20,20,0,0,0,1.66-2l0.95,0.7q-0.85,1-1.83,2Z" transform="translate(-26.17 -78.07)"/><path class="cls-22" d="M74.64,112.59a6.62,6.62,0,0,0,2-2.28L77,110.39l0,0.07-0.11.19q0.68,0.6,1.58,1.47l-0.27.27q-0.9-.92-1.49-1.46a7.49,7.49,0,0,1-1.84,2A3.05,3.05,0,0,0,74.64,112.59Zm0.72,0H78q0,0.62-.07,1.32a0.78,0.78,0,0,1-.91.8H76.31a2.24,2.24,0,0,0-.09-0.35l0.75,0a0.5,0.5,0,0,0,.59-0.53q0-.42,0-0.95H75.71v2.64a0.45,0.45,0,0,0,.57.5h1a0.62,0.62,0,0,0,.7-0.39,5.92,5.92,0,0,0,.13-0.76l0.38,0.13a6.77,6.77,0,0,1-.18.77,0.83,0.83,0,0,1-1,.58H76.2a0.7,0.7,0,0,1-.84-0.8v-3Zm3.5-1.6h0.35v4H78.87v-4Zm1.4-.69h0.35v5.4a0.67,0.67,0,0,1-.72.75H79.07a3,3,0,0,0-.08-0.37l0.84,0a0.39,0.39,0,0,0,.44-0.44v-5.38Z" transform="translate(-26.17 -78.07)"/><path class="cls-22" d="M85.16,110.44h0.36v5.41h2.16v0.34H81.36v-0.34h2.13v-5.41h0.36v5.41h1.31v-5.41Zm-2.53,4q-0.38-1.13-1-2.56l0.33-.11q0.48,1.16,1,2.54Zm3.67,0L86,114.29a26.71,26.71,0,0,0,1.09-2.54l0.36,0.12Q86.84,113.32,86.3,114.44Z" transform="translate(-26.17 -78.07)"/><path class="cls-22" d="M88,112.62h1.86q0.27-.43.6-1.06l0.31,0.15-0.56.91h1.05v0.31H88v-0.31Zm0.67,1.91L89,114.67q-0.33.71-.65,1.26l-0.3-.16A10.23,10.23,0,0,0,88.72,114.53Zm0.82-1.4h0.34v0.68h1.27v0.31H89.88v1.67a0.61,0.61,0,0,1-.66.72H88.67a2,2,0,0,0-.07-0.35h0.54a0.36,0.36,0,0,0,.42-0.4v-1.66H88.22v-0.31h1.33v-0.68Zm-0.17-2.73,0.33-.09q0.16,0.37.32,0.79h1.13v0.31H88.24V111.1h1.4l-0.18-.44Zm-0.79,1.31,0.29-.16q0.23,0.34.52,0.84l-0.3.17Q88.78,112,88.58,111.71Zm2.25,3.92q-0.35-.54-0.65-1l0.26-.18q0.37,0.48.68,0.95Zm0,0.72a4.13,4.13,0,0,0,.84-3v-2.5a20.42,20.42,0,0,0,2.41-.23L94.2,111q-1,.14-2.17.22v1.67h2.35v0.33H93.48v3.44H93.14v-3.44H92v0.2a4.7,4.7,0,0,1-.86,3.18A2.37,2.37,0,0,0,90.84,116.35Z" transform="translate(-26.17 -78.07)"/><path class="cls-22" d="M94.95,114.56a2.27,2.27,0,0,0-.21-0.33,7.28,7.28,0,0,0,1.72-2.13l0.33,0.17q-0.36.59-.64,1v3.39H95.79V113.7A8.9,8.9,0,0,1,94.95,114.56Zm0.2-2.28a3.12,3.12,0,0,0-.22-0.32,6.54,6.54,0,0,0,1.57-1.54l0.32,0.2A8.39,8.39,0,0,1,95.15,112.28Zm2.08-1.44H101v0.34H99.44v2.15h1.39v0.34H99.44V116H101v0.34h-4.3V116h0.67v-3.36h0.36V116h1.3v-4.79H97.23v-0.34Z" transform="translate(-26.17 -78.07)"/><path class="cls-22" d="M101.5,112.3h1v-1.21l-0.9,0v0a2.56,2.56,0,0,0-.06-0.29q1.1,0,2.14-.15l0.07,0.31-0.25,0-0.66.06v1.23h0.92v0.31h-0.92v0.92l0.22-.18q0.51,0.5.81,0.82l-0.28.23-0.75-.83v3.07H102.5v-3.32a6.09,6.09,0,0,1-.93,2,2.41,2.41,0,0,0-.2-0.33,7,7,0,0,0,1.11-2.36h-1V112.3Zm2.08,3.68h2v-1.09h-1.49v-0.31h1.49v-1h-1.65v-0.31h3.66v0.31h-1.65v1h1.49v0.31h-1.49V116h1.88v0.31h-4.23V116Zm0.63-5.24h3.11v1.75H104.2v-1.75Zm0.36,0.31v1.12H107v-1.12h-2.4Z" transform="translate(-26.17 -78.07)"/><path class="cls-22" d="M111.61,115.82h-0.3l-0.79-2.73a1.9,1.9,0,0,1-.06-0.3h0a1.87,1.87,0,0,1-.07.3l-0.88,2.73h-0.3l-1.09-3.62h0.36l0.84,2.88a1.66,1.66,0,0,1,0,.3h0a1.57,1.57,0,0,1,.07-0.3l0.92-2.88h0.22l0.82,2.88a2.55,2.55,0,0,1,0,.3h0a1.23,1.23,0,0,1,.06-0.3l0.86-2.88h0.34Z" transform="translate(-26.17 -78.07)"/><path class="cls-22" d="M113.51,114a1.79,1.79,0,0,0,.34,1.17,1.15,1.15,0,0,0,.95.42,1.92,1.92,0,0,0,1.19-.45v0.35a2.11,2.11,0,0,1-1.25.4,1.42,1.42,0,0,1-1.13-.5,2.1,2.1,0,0,1-.43-1.41,2,2,0,0,1,.45-1.33,1.45,1.45,0,0,1,1.17-.54,1.22,1.22,0,0,1,1,.47,2.08,2.08,0,0,1,.36,1.29V114h-2.68Zm2.34-.29a1.61,1.61,0,0,0-.3-1,0.93,0.93,0,0,0-.77-0.34,1.13,1.13,0,0,0-.84.34,1.64,1.64,0,0,0-.41,1h2.32Z" transform="translate(-26.17 -78.07)"/><path class="cls-22" d="M117.25,111.29A0.27,0.27,0,0,1,117,111a0.24,0.24,0,0,1,.08-0.19,0.27,0.27,0,0,1,.19-0.07,0.29,0.29,0,0,1,.19.07,0.24,0.24,0,0,1,.08.19,0.26,0.26,0,0,1-.08.19A0.27,0.27,0,0,1,117.25,111.29Zm-0.16,4.53v-3.62h0.32v3.62h-0.32Z" transform="translate(-26.17 -78.07)"/><path class="cls-22" d="M121.47,115.56A2.12,2.12,0,0,1,121,117a1.82,1.82,0,0,1-1.38.47,2.42,2.42,0,0,1-1.08-.27v-0.34a2.24,2.24,0,0,0,1.08.32,1.36,1.36,0,0,0,1.5-1.58v-0.47h0a1.41,1.41,0,0,1-1.3.74,1.38,1.38,0,0,1-1.09-.48,2,2,0,0,1-.42-1.35,2.13,2.13,0,0,1,.46-1.41,1.49,1.49,0,0,1,1.2-.55,1.22,1.22,0,0,1,1.16.66h0v-0.57h0.33v3.35Zm-0.33-2a1.18,1.18,0,0,0-.32-0.83,1.09,1.09,0,0,0-.84-0.35,1.17,1.17,0,0,0-1,.45,1.83,1.83,0,0,0-.36,1.19,1.78,1.78,0,0,0,.33,1.15,1.08,1.08,0,0,0,.88.41,1.2,1.2,0,0,0,.93-0.38,1.32,1.32,0,0,0,.34-0.92V113.6Z" transform="translate(-26.17 -78.07)"/><path class="cls-22" d="M125,115.82v-0.66h0a1.24,1.24,0,0,1-1.17.75q-1.28,0-1.28-1.62v-2.09h0.33v2a1.83,1.83,0,0,0,.24,1.06,0.88,0.88,0,0,0,.76.33,1,1,0,0,0,.82-0.37,1.49,1.49,0,0,0,.31-1v-2h0.33v3.62H125Z" transform="translate(-26.17 -78.07)"/><path class="cls-22" d="M127.95,115.91a1.59,1.59,0,0,1-1.25-.52,2.26,2.26,0,0,1,0-2.76,1.67,1.67,0,0,1,1.27-.51,1.55,1.55,0,0,1,1.22.51,2,2,0,0,1,.45,1.4,2,2,0,0,1-.46,1.37A1.58,1.58,0,0,1,127.95,115.91Zm0-3.5a1.29,1.29,0,0,0-1,.43,1.75,1.75,0,0,0-.38,1.2,1.68,1.68,0,0,0,.37,1.14,1.27,1.27,0,0,0,1,.43,1.24,1.24,0,0,0,1-.42,2.15,2.15,0,0,0,0-2.36A1.23,1.23,0,0,0,128,112.42Z" transform="translate(-26.17 -78.07)"/><path class="cls-22" d="M132.72,115.82V115.1h0a1.43,1.43,0,0,1-.5.59,1.29,1.29,0,0,1-.73.22,1.13,1.13,0,0,1-.82-0.29,1,1,0,0,1-.3-0.73,1.19,1.19,0,0,1,1.26-1.14l1.11-.17q0-1.16-.88-1.16a1.78,1.78,0,0,0-1.16.48V112.5a1.73,1.73,0,0,1,.54-0.27,2.1,2.1,0,0,1,.65-0.11,1.09,1.09,0,0,1,.86.35,1.48,1.48,0,0,1,.3,1v2.35h-0.32Zm-1-1.8a1.75,1.75,0,0,0-.8.26,0.71,0.71,0,0,0-.23.59,0.7,0.7,0,0,0,.21.53,0.82,0.82,0,0,0,.6.21,1.12,1.12,0,0,0,.87-0.39,1.44,1.44,0,0,0,.35-1v-0.35Z" transform="translate(-26.17 -78.07)"/><path class="cls-22" d="M135.84,112.55a0.64,0.64,0,0,0-.38-0.12,0.84,0.84,0,0,0-.72.44,2.29,2.29,0,0,0-.29,1.26v1.7h-0.32v-3.62h0.32V113h0a1.3,1.3,0,0,1,.39-0.64,0.93,0.93,0,0,1,.62-0.23,0.94,0.94,0,0,1,.36.07v0.35Z" transform="translate(-26.17 -78.07)"/><path class="cls-22" d="M137.95,115.78a1.12,1.12,0,0,1-.48.12,0.79,0.79,0,0,1-.8-1V112.5H136v-0.3h0.65v-0.94l0.16-.06,0.16-.06v1h1v0.3h-1v2.39a1,1,0,0,0,.12.54,0.46,0.46,0,0,0,.4.17,0.91,0.91,0,0,0,.43-0.13v0.3Z" transform="translate(-26.17 -78.07)"/><path class="cls-22" d="M138.89,115.89a0.27,0.27,0,0,1-.2-0.08,0.28,0.28,0,0,1-.08-0.2,0.27,0.27,0,0,1,.08-0.2,0.28,0.28,0,0,1,.2-0.08,0.29,0.29,0,0,1,.21.08,0.26,0.26,0,0,1,.08.2,0.27,0.27,0,0,1-.08.2A0.29,0.29,0,0,1,138.89,115.89Z" transform="translate(-26.17 -78.07)"/><path class="cls-22" d="M142.61,115.66a1.8,1.8,0,0,1-1,.25,1.52,1.52,0,0,1-1.19-.51,1.92,1.92,0,0,1-.45-1.33,2,2,0,0,1,.51-1.41,1.7,1.7,0,0,1,1.31-.55,2,2,0,0,1,.8.17v0.37a1.58,1.58,0,0,0-.85-0.24,1.3,1.3,0,0,0-1,.46,1.75,1.75,0,0,0-.4,1.18,1.69,1.69,0,0,0,.36,1.13,1.19,1.19,0,0,0,1,.43,1.58,1.58,0,0,0,.94-0.29v0.34Z" transform="translate(-26.17 -78.07)"/><path class="cls-22" d="M144.93,115.91a1.59,1.59,0,0,1-1.25-.52,2.26,2.26,0,0,1,0-2.76,1.67,1.67,0,0,1,1.27-.51,1.55,1.55,0,0,1,1.22.51,2,2,0,0,1,.45,1.4,2,2,0,0,1-.46,1.37A1.58,1.58,0,0,1,144.93,115.91Zm0-3.5a1.29,1.29,0,0,0-1,.43,1.75,1.75,0,0,0-.38,1.2,1.68,1.68,0,0,0,.37,1.14,1.27,1.27,0,0,0,1,.43,1.24,1.24,0,0,0,1-.42,2.15,2.15,0,0,0,0-2.36A1.23,1.23,0,0,0,145,112.42Z" transform="translate(-26.17 -78.07)"/><path class="cls-22" d="M152.08,115.82v-2.17a1.6,1.6,0,0,0-.21-1,0.8,0.8,0,0,0-.67-0.27,0.94,0.94,0,0,0-.74.37,1.38,1.38,0,0,0-.31.92v2.12h-0.32v-2.2q0-1.21-.92-1.21a0.9,0.9,0,0,0-.74.37,1.48,1.48,0,0,0-.29,1v2.08h-0.32v-3.62h0.32v0.6h0a1.2,1.2,0,0,1,1.11-.69,1,1,0,0,1,.68.23,1.11,1.11,0,0,1,.38.6,1.39,1.39,0,0,1,.49-0.61,1.18,1.18,0,0,1,.69-0.22q1.19,0,1.19,1.47v2.24h-0.32Z" transform="translate(-26.17 -78.07)"/></svg>