<svg xmlns="http://www.w3.org/2000/svg" xmlns:xlink="http://www.w3.org/1999/xlink" viewBox="0 0 127.42 49.14"><defs><style>.cls-1{fill:none;}.cls-2{clip-path:url(#clip-path);}.cls-3{fill:url(#未命名的渐变);}.cls-4{clip-path:url(#clip-path-2);}.cls-5{fill:url(#未命名的渐变_2);}.cls-6{clip-path:url(#clip-path-3);}.cls-7{fill:url(#未命名的渐变_3);}.cls-8{clip-path:url(#clip-path-4);}.cls-9{fill:url(#未命名的渐变_4);}.cls-10{clip-path:url(#clip-path-5);}.cls-11{fill:#dc7421;}.cls-12{fill:#cd281c;}.cls-13{clip-path:url(#clip-path-6);}.cls-14{fill:url(#未命名的渐变_5);}.cls-15{clip-path:url(#clip-path-7);}.cls-16{fill:url(#未命名的渐变_6);}.cls-17{clip-path:url(#clip-path-8);}.cls-18{fill:url(#未命名的渐变_7);}.cls-19{clip-path:url(#clip-path-9);}.cls-20{fill:url(#未命名的渐变_8);}.cls-21{fill:#231815;}.cls-22{fill:#333;}</style><clipPath id="clip-path" transform="translate(-0.03)"><path class="cls-1" d="M21.61,24.2c3.71-1.85,5.76,1.61,5,4.52-.56,2.32-2.54,4.13-5.33,5.16-4.89,1.66-12.82.14-13,.06l5.87,8.69c.32.08,10.39-.13,14.29-4.53,3.53-3.36,4.93-9.82,2.34-13.37a6.61,6.61,0,0,0-5.09-2.27,5.44,5.44,0,0,0-4.17,1.74"/></clipPath><radialGradient id="未命名的渐变" cx="-464.76" cy="356.07" r="0.23" gradientTransform="translate(-10455.2 -13634.39) rotate(-90) scale(29.4)" gradientUnits="userSpaceOnUse"><stop offset="0" stop-color="#eb5e16"/><stop offset="1" stop-color="#bf1a20"/></radialGradient><clipPath id="clip-path-2" transform="translate(-0.03)"><path class="cls-1" d="M14,15.85c-2.94,3.9-2.65,9.53.49,12.61A5.36,5.36,0,0,0,22.59,28c-3.85.82-5.9-1-5.68-4,.17-2.38,1.92-4,4.78-5.12a26.36,26.36,0,0,1,13.94-1L29.55,9.75h-.42c-1.94,0-10.24.35-15.12,6.11"/></clipPath><radialGradient id="未命名的渐变_2" cx="-428.35" cy="392.54" r="0.23" gradientTransform="translate(8206.14 8946.48) rotate(90) scale(20.83)" gradientUnits="userSpaceOnUse"><stop offset="0" stop-color="#f0bf1b"/><stop offset="0.01" stop-color="#f0bf1b"/><stop offset="1" stop-color="#c4641a"/></radialGradient><clipPath id="clip-path-3" transform="translate(-0.03)"><path class="cls-1" d="M35.25,15c.89,1.55,1.84,3.07,2.79,4.6-2-.42-3.69-.69-5-.83-4.39-.47-5.71.26-5.71.26a64.57,64.57,0,0,1,8.37,1.33A32.23,32.23,0,0,1,44,23.72l-6-8.93Z"/></clipPath><linearGradient id="未命名的渐变_3" x1="-441.83" y1="374.05" x2="-441.61" y2="374.05" gradientTransform="translate(32647.47 -27597.07) scale(73.83)" gradientUnits="userSpaceOnUse"><stop offset="0" stop-color="#e28311"/><stop offset="0.2" stop-color="#e28311"/><stop offset="0.96" stop-color="#c4641a"/><stop offset="1" stop-color="#c4641a"/></linearGradient><clipPath id="clip-path-4" transform="translate(-0.03)"><path class="cls-1" d="M6,37.26l2.9-.13c-.9-1.62-1.89-3-2.73-4.6a26.72,26.72,0,0,0,5.07.78,26.86,26.86,0,0,0,5.34,0A16.72,16.72,0,0,0,18.39,33,37.94,37.94,0,0,1,14,32.68a44.9,44.9,0,0,1-6.14-1.17,35.11,35.11,0,0,1-5.92-2.09,20.79,20.79,0,0,1-1.94-1Z"/></clipPath><linearGradient id="未命名的渐变_4" x1="-441.14" y1="372.86" x2="-440.91" y2="372.86" gradientTransform="translate(35807.38 -30232.48) scale(81.17)" gradientUnits="userSpaceOnUse"><stop offset="0" stop-color="#c4641a"/><stop offset="0.07" stop-color="#c4641a"/><stop offset="0.93" stop-color="#e28311"/><stop offset="1" stop-color="#e28311"/></linearGradient><clipPath id="clip-path-5" transform="translate(-0.03)"><rect class="cls-1" x="0.03" y="4.2" width="44.03" height="38.66"/></clipPath><clipPath id="clip-path-6" transform="translate(-0.03)"><path class="cls-1" d="M30.41,4.2a5.9,5.9,0,0,0-3,1.15,30.3,30.3,0,0,0-4,3.07,7.52,7.52,0,0,1,2.47-1,12.75,12.75,0,0,1,2.55-.16,9.63,9.63,0,0,0,2-.13,3.64,3.64,0,0,0,1.7-.64c.65-.79-.15-1.83-.79-2.12a2.43,2.43,0,0,0-1-.22h0Z"/></clipPath><linearGradient id="未命名的渐变_5" x1="-438.55" y1="385.52" x2="-438.32" y2="385.52" gradientTransform="translate(14709.21 -12900.99) scale(33.48)" gradientUnits="userSpaceOnUse"><stop offset="0" stop-color="#056191"/><stop offset="1" stop-color="#2986c9"/></linearGradient><clipPath id="clip-path-7" transform="translate(-0.03)"><path class="cls-1" d="M16.23,8.12a15.86,15.86,0,0,0-3.73,5.2,15.32,15.32,0,0,0-1.27,5.92,17,17,0,0,1,3.14-6.49,18,18,0,0,1,2.71-2.66c1.58-1.44,6.36-2.52,6.42-4.81a.82.82,0,0,0-.83-.79h-.14c-2.64,0-6,3.36-6.3,3.62"/></clipPath><radialGradient id="未命名的渐变_6" cx="-436.6" cy="347.79" r="0.23" gradientTransform="translate(-13703.22 10936.69) rotate(180) scale(31.42)" xlink:href="#未命名的渐变_5"/><clipPath id="clip-path-8" transform="translate(-0.03)"><path class="cls-1" d="M8.45,8.73C6.45,10.52,6,15.57,6,15.95a14.41,14.41,0,0,0,1,6.8c1.15,2.33,3.49,4.66,4.51,4.92a11.85,11.85,0,0,1-3.18-7.22,10.38,10.38,0,0,1,0-1.72,13.36,13.36,0,0,1,.16-1.8,21.46,21.46,0,0,1,1-3.48c.82-1.82,1.68-3.79.68-4.76a1,1,0,0,0-.75-.32,1.76,1.76,0,0,0-.94.32"/></clipPath><radialGradient id="未命名的渐变_7" cx="-435.97" cy="361.45" r="0.23" gradientTransform="translate(20324.58 24520.57) rotate(90) scale(56.21)" gradientUnits="userSpaceOnUse"><stop offset="0" stop-color="#2986c9"/><stop offset="0.03" stop-color="#2986c9"/><stop offset="0.96" stop-color="#056191"/><stop offset="1" stop-color="#056191"/></radialGradient><clipPath id="clip-path-9" transform="translate(-0.03)"><path class="cls-1" d="M3.12,25.93A5.1,5.1,0,0,0,5,28.63a10.39,10.39,0,0,0,4.38,1.94,12.88,12.88,0,0,0,5.84-.24,10.89,10.89,0,0,1-5.56-1.61,13.42,13.42,0,0,1-2.31-1.79A17.78,17.78,0,0,1,5.78,25a2.09,2.09,0,0,0-1.52-.69c-.72,0-1.33.46-1.14,1.64"/></clipPath><linearGradient id="未命名的渐变_8" x1="-438.36" y1="376.16" x2="-438.13" y2="376.16" gradientTransform="translate(23547.13 -20175.75) scale(53.71)" gradientUnits="userSpaceOnUse"><stop offset="0" stop-color="#2986c9"/><stop offset="0.99" stop-color="#056191"/><stop offset="1" stop-color="#056191"/></linearGradient></defs><title>资源 2</title><g id="图层_2" data-name="图层 2"><g id="图层_1-2" data-name="图层 1"><g class="cls-2"><rect class="cls-3" x="7.75" y="17.71" width="26.32" height="29.61" transform="translate(-16.02 44.01) rotate(-74.55)"/></g><g class="cls-4"><rect class="cls-5" x="12.85" y="8.07" width="21.2" height="24.72" transform="matrix(0.01, -1, 1, 0.01, 2.76, 43.68)"/></g><g class="cls-6"><rect class="cls-7" x="27.33" y="14.8" width="16.7" height="8.93"/></g><g class="cls-8"><rect class="cls-9" y="28.39" width="18.36" height="8.88"/></g><g class="cls-10"><polygon class="cls-11" points="36.1 11.74 33.3 11.91 31.89 9.46 34.41 9.06 36.1 11.74"/><polygon class="cls-12" points="12.21 42.67 9.56 42.86 8.12 40.43 10.63 40.26 12.21 42.67"/></g><g class="cls-13"><rect class="cls-14" x="23.16" y="3.44" width="10" height="5.75" transform="translate(-0.69 4.82) rotate(-9.67)"/></g><g class="cls-15"><rect class="cls-16" x="8.14" y="3.29" width="18.44" height="17.11" transform="translate(-0.4 23.14) rotate(-66.8)"/></g><g class="cls-17"><rect class="cls-18" x="3.57" y="8" width="10" height="20.07" transform="translate(-3.9 2.41) rotate(-13.11)"/></g><g class="cls-19"><rect class="cls-20" x="2.91" y="24.32" width="12.3" height="6.7"/></g><path class="cls-21" d="M48.74,18.09h4l.36-1.79H47.37v-1H60.16v1h-6l-.42,1.79h5v9.33h-1v-1h-8v1h-1Zm9,.95h-8v2.73h8Zm-8,6.47h8V22.72h-8Z" transform="translate(-0.03)"/><path class="cls-21" d="M60.73,25.68H65V14.82h1.1V25.67h2.3V14.82h1.1V25.67h4.26v1h-13v-1Zm1.52-8.28q1.08,2.54,2.09,5.39l-1.08.49q-.88-2.77-2-5.45Zm7.68,5.53a53.07,53.07,0,0,0,2.21-5.39l1.06.39q-1.22,3.14-2.33,5.4Z" transform="translate(-0.03)"/><path class="cls-21" d="M74.57,26.07h5.57V22.86h-4.7v-1h4.7V20.07H76.72v-.92q-.93.59-2,1.18a7.41,7.41,0,0,0-.66-1,15,15,0,0,0,6.19-4.7h1.43l-.3.37a13.5,13.5,0,0,0,5.91,4.15q-.35.5-.7,1.05a13.81,13.81,0,0,1-2-1v.89h-3.4v1.84h4.67v1H81.18v3.21h5.6v1H74.57V26.07ZM76,23.67l.78-.62q1,1,1.88,2l-.89.71Q77,24.74,76,23.67Zm4.64-7.91a16,16,0,0,1-3.9,3.35h7.71A17.17,17.17,0,0,1,80.68,15.76Zm1.87,9.42A18,18,0,0,0,84.35,23l.92.59q-.92,1.14-1.93,2.19Z" transform="translate(-0.03)"/><path class="cls-21" d="M88,15.23h6.4v.84H88Zm1,12.22h-.87V20.72H94.4V26.2a1.12,1.12,0,0,1-1.3,1.24h-1a6.43,6.43,0,0,0-.2-.91q.63,0,1,.05a.52.52,0,0,0,.62-.57V21.54H89v5.91Zm-.36-10.52h5.19V20.1H93v-.3H89.55v.34h-.87V16.93Zm.57,6.66h2q.75-1.35,1-1.88l.78.37q-.54.88-1,1.51h1.2v.79H91.63v2.73h-.77V24.43h-1.6v-.79Zm.24-1.43.63-.39A10.11,10.11,0,0,1,91,23.12l-.68.42q-.42-.66-.81-1.33ZM93,17.72H89.55V19H93V17.72Zm5.82,5.87.88-.25q.59,2,1,3.78l-.92.24q-.08-.35-.17-.71l-4.69.54-.2-1.09,2.43-.17v-3.5H96.05v.43h-1V17.07h2V14.72H98v2.35h2v5.36H98v3.5l1.31-.09a17.17,17.17,0,0,0-.48-2.2ZM96,21.51h1.09V17.93H96v3.58Zm3.1,0V17.93H98.06v3.63h1.09Z" transform="translate(-0.03)"/><path class="cls-21" d="M107.5,15.93l.79.51a27,27,0,0,1-1.79,2.37h1v.87h-1.72q-.53.59-1.08,1.14h2.16v.79l-1.7,1.67v.24l2.35-.42a7.56,7.56,0,0,1-.05.91l-2.3.41v1.43a1.29,1.29,0,0,1-1.52,1.56h-1.46q0-.42-.13-1,.62.07,1.41.08a.6.6,0,0,0,.76-.74V24.59l-2.68.51-.16-1,2.84-.45V23l1.38-1.37h-1.76q-1.09,1-2.18,1.84a7.52,7.52,0,0,0-.62-.75q.76-.54,1.42-1.09h-1.09v-.83h2q.62-.55,1.2-1.14h-3.4v-.87h2.59V17.48H101.7v-.87h2.06V14.82h.95v1.79h1.62v.87h-1.62v1.34h.64A21.42,21.42,0,0,0,107.5,15.93Zm-.39,5.31a26.46,26.46,0,0,0,2.38-6.44l1,.24q-.26,1.08-.6,2.14H114v1H112.7A11.18,11.18,0,0,1,111,24a8.08,8.08,0,0,0,3.14,2.56,11.54,11.54,0,0,0-.62,1,10.34,10.34,0,0,1-3.13-2.69A11.42,11.42,0,0,1,107,27.66l-.64-.87a10.13,10.13,0,0,0,3.51-2.86,9.93,9.93,0,0,1-1.25-3.47q-.3.64-.62,1.27l-.88-.48Zm2.11-2.31a11.36,11.36,0,0,0,1.2,4.14,10.24,10.24,0,0,0,1.27-4.9h-2.18Z" transform="translate(-0.03)"/><path class="cls-21" d="M114.61,22.93h6.15v-.74l2.51-1.42h-6.18v-1h7.71v1.16l-3,1.72v.28h5.65v1h-5.59v2a1.38,1.38,0,0,1-1.56,1.55h-2a5,5,0,0,0-.16-1.12q1,.11,2,.12a.62.62,0,0,0,.68-.72V24h-6.15V23Zm.45-5.36h12v2.65h-1v-1.7h-9.91v1.7h-1V17.56Zm1-2.14.78-.57q.8.88,1.58,1.91l-.89.63a20.6,20.6,0,0,0-1.44-2Zm3.55-.39.85-.5q.8,1,1.48,2.14l-.95.54a18,18,0,0,0-1.35-2.2Zm3.73,1.77a20,20,0,0,0,1.66-2l.95.7q-.85,1-1.83,2Z" transform="translate(-0.03)"/><path class="cls-22" d="M85.47,37.75h-.3L84.38,35a1.9,1.9,0,0,1-.06-.3h0a1.87,1.87,0,0,1-.07.3l-.88,2.73h-.3L82,34.13h.36L83.18,37a1.66,1.66,0,0,1,0,.3h0a1.57,1.57,0,0,1,.07-.3l.92-2.88h.22L85.21,37a2.55,2.55,0,0,1,0,.3h0a1.23,1.23,0,0,1,.06-.3l.86-2.88h.34Z" transform="translate(-0.03)"/><path class="cls-22" d="M87.37,35.93a1.79,1.79,0,0,0,.34,1.17,1.15,1.15,0,0,0,.95.42,1.92,1.92,0,0,0,1.19-.45v.35a2.11,2.11,0,0,1-1.25.4,1.42,1.42,0,0,1-1.13-.5A2.1,2.1,0,0,1,87,35.91a2,2,0,0,1,.45-1.33A1.45,1.45,0,0,1,88.66,34a1.22,1.22,0,0,1,1,.47A2.08,2.08,0,0,1,90,35.8v.13H87.37Zm2.34-.29a1.61,1.61,0,0,0-.3-1,.93.93,0,0,0-.77-.34,1.13,1.13,0,0,0-.84.34,1.64,1.64,0,0,0-.41,1Z" transform="translate(-0.03)"/><path class="cls-22" d="M91.11,33.22a.27.27,0,0,1-.25-.29h0a.24.24,0,0,1,.08-.19.27.27,0,0,1,.19-.07.29.29,0,0,1,.19.07.24.24,0,0,1,.08.19.26.26,0,0,1-.08.19A.27.27,0,0,1,91.11,33.22Zm-.16,4.53V34.13h.32v3.62Z" transform="translate(-0.03)"/><path class="cls-22" d="M95.33,37.49a2.12,2.12,0,0,1-.47,1.44,1.82,1.82,0,0,1-1.38.47,2.42,2.42,0,0,1-1.08-.27v-.34a2.24,2.24,0,0,0,1.08.32A1.36,1.36,0,0,0,95,37.53v-.47h0a1.41,1.41,0,0,1-1.3.74,1.38,1.38,0,0,1-1.09-.48A2,2,0,0,1,92.17,36a2.13,2.13,0,0,1,.46-1.41,1.49,1.49,0,0,1,1.2-.55,1.22,1.22,0,0,1,1.16.66h0V34.1h.33v3.39Zm-.33-2a1.18,1.18,0,0,0-.32-.83,1.09,1.09,0,0,0-.84-.35,1.17,1.17,0,0,0-1,.45,1.83,1.83,0,0,0-.36,1.19,1.78,1.78,0,0,0,.33,1.15,1.08,1.08,0,0,0,.88.41,1.2,1.2,0,0,0,.93-.38,1.32,1.32,0,0,0,.34-.92v-.68Z" transform="translate(-0.03)"/><path class="cls-22" d="M98.86,37.75v-.66h0a1.24,1.24,0,0,1-1.17.75q-1.28,0-1.28-1.62V34.13h.33v2A1.83,1.83,0,0,0,97,37.19a.88.88,0,0,0,.76.33,1,1,0,0,0,.82-.37,1.49,1.49,0,0,0,.31-1v-2h.33v3.62h-.34Z" transform="translate(-0.03)"/><path class="cls-22" d="M101.81,37.84a1.59,1.59,0,0,1-1.25-.52,2.26,2.26,0,0,1,0-2.76,1.67,1.67,0,0,1,1.27-.51,1.55,1.55,0,0,1,1.22.51,2.34,2.34,0,0,1,0,2.77A1.58,1.58,0,0,1,101.81,37.84Zm0-3.5a1.29,1.29,0,0,0-1,.43,1.75,1.75,0,0,0-.38,1.2,1.68,1.68,0,0,0,.37,1.14,1.27,1.27,0,0,0,1,.43,1.24,1.24,0,0,0,1-.42,2.15,2.15,0,0,0,0-2.36,1.23,1.23,0,0,0-.94-.41Z" transform="translate(-0.03)"/><path class="cls-22" d="M106.58,37.75V37h0a1.43,1.43,0,0,1-.5.59,1.29,1.29,0,0,1-.73.22,1.13,1.13,0,0,1-.82-.29,1,1,0,0,1-.3-.73,1.19,1.19,0,0,1,1.24-1.14h0l1.11-.17q0-1.16-.88-1.16a1.78,1.78,0,0,0-1.16.48v-.4a1.73,1.73,0,0,1,.54-.27,2.1,2.1,0,0,1,.65-.11,1.09,1.09,0,0,1,.86.35,1.48,1.48,0,0,1,.3,1v2.35h-.33Zm-1-1.8a1.75,1.75,0,0,0-.8.26.71.71,0,0,0-.23.59.7.7,0,0,0,.21.53.82.82,0,0,0,.6.21,1.12,1.12,0,0,0,.87-.39,1.44,1.44,0,0,0,.35-1V35.8Z" transform="translate(-0.03)"/><path class="cls-22" d="M109.7,34.48a.64.64,0,0,0-.38-.12.84.84,0,0,0-.72.44,2.29,2.29,0,0,0-.29,1.26v1.7H108V34.14h.32v.79h0a1.3,1.3,0,0,1,.39-.64.93.93,0,0,1,.62-.23.94.94,0,0,1,.36.07v.35Z" transform="translate(-0.03)"/><path class="cls-22" d="M111.81,37.71a1.12,1.12,0,0,1-.48.12.79.79,0,0,1-.8-1v-2.4h-.67v-.3h.65v-.94l.16-.06.16-.06v1h1v.3h-1v2.39a1,1,0,0,0,.12.54.46.46,0,0,0,.4.17.91.91,0,0,0,.43-.13v.3Z" transform="translate(-0.03)"/><path class="cls-22" d="M112.75,37.82a.27.27,0,0,1-.2-.08.28.28,0,0,1-.08-.2.27.27,0,0,1,.08-.2.28.28,0,0,1,.2-.08.29.29,0,0,1,.21.08.26.26,0,0,1,.08.2.27.27,0,0,1-.08.2A.29.29,0,0,1,112.75,37.82Z" transform="translate(-0.03)"/><path class="cls-22" d="M116.47,37.59a1.8,1.8,0,0,1-1,.25,1.52,1.52,0,0,1-1.19-.51,1.92,1.92,0,0,1-.45-1.33,2,2,0,0,1,.51-1.41,1.7,1.7,0,0,1,1.31-.55,2,2,0,0,1,.8.17v.37a1.58,1.58,0,0,0-.85-.24,1.3,1.3,0,0,0-1,.46,1.75,1.75,0,0,0-.4,1.18,1.69,1.69,0,0,0,.36,1.13,1.19,1.19,0,0,0,1,.43,1.58,1.58,0,0,0,.94-.29v.34Z" transform="translate(-0.03)"/><path class="cls-22" d="M118.79,37.84a1.59,1.59,0,0,1-1.25-.52,2.26,2.26,0,0,1,0-2.76,1.67,1.67,0,0,1,1.27-.51,1.55,1.55,0,0,1,1.22.51,2.34,2.34,0,0,1,0,2.77A1.58,1.58,0,0,1,118.79,37.84Zm0-3.5a1.29,1.29,0,0,0-1,.43,1.75,1.75,0,0,0-.38,1.2,1.68,1.68,0,0,0,.37,1.14,1.27,1.27,0,0,0,1,.43,1.24,1.24,0,0,0,1-.42,2.15,2.15,0,0,0,0-2.36,1.23,1.23,0,0,0-.92-.41Z" transform="translate(-0.03)"/><path class="cls-22" d="M125.94,37.75V35.58a1.6,1.6,0,0,0-.21-1,.8.8,0,0,0-.67-.27.94.94,0,0,0-.74.37,1.38,1.38,0,0,0-.31.92v2.12h-.32v-2.2q0-1.21-.92-1.21a.9.9,0,0,0-.74.37,1.48,1.48,0,0,0-.29,1v2.08h-.32V34.14h.32v.6h0a1.2,1.2,0,0,1,1.11-.69,1,1,0,0,1,.68.23,1.11,1.11,0,0,1,.38.6,1.39,1.39,0,0,1,.49-.61,1.18,1.18,0,0,1,.69-.22q1.19,0,1.19,1.47v2.24h-.34Z" transform="translate(-0.03)"/><path class="cls-22" d="M43.29,32.21a7.52,7.52,0,0,0,3,2.11l-.21.31a7.89,7.89,0,0,1-2.93-2.06,9.3,9.3,0,0,1-2.95,2.08L40,34.34a9,9,0,0,0,3-2.13Zm-2,1.92H45v.34H43.33V35.6h2.54V36H43.33v2h.87a9.3,9.3,0,0,0,.68-1.54l.34.13A8.12,8.12,0,0,1,44.59,38h1.53v.36h-6V38h1.52a7.56,7.56,0,0,0-.62-1.36l.34-.13A7.37,7.37,0,0,1,42,38h.9V36H40.4V35.6h2.55V34.47H41.32Z" transform="translate(-0.03)"/><path class="cls-22" d="M47,32.44h3.28v.35H47Zm2.17,6-.09-.34.51,0c.14,0,.22-.07.22-.2V35.6H47.51v2.92h-.34V35.27h3V38a.4.4,0,0,1-.45.46Zm-1.75-5.14h2.45v1.44H47.46Zm2.11,1.13v-.82H47.8v.82ZM47.8,36.84h1a6.68,6.68,0,0,0,.36-1l.28.11a6.69,6.69,0,0,1-.34.88h.5v.3h-.73v1.3h-.32v-1.3H47.8Zm.38-.92a4.57,4.57,0,0,1,.36.77l-.26.07a4.7,4.7,0,0,0-.36-.76Zm2.4-2.51h1V32.16H52v1.25h1v2.69H52V37.8l.79-.18q-.14-.49-.3-.92l.3-.1a12.76,12.76,0,0,1,.54,1.78l-.32.08-.13-.52q-1,.26-2.28.45L50.47,38l1.13-.17V36.09h-1Zm1,2.35v-2h-.7v2Zm1,0v-2h-.71v2Z" transform="translate(-0.03)"/><path class="cls-22" d="M54.15,38.44l-.08-.35.52,0q.31,0,.32-.34V36q-.45.19-.92.34l-.1-.37q.54-.15,1-.34V33.83H54v-.37h.89V32.15h.38v1.32h.78v.37h-.78v1.6q.39-.18.8-.42v.37q-.35.2-.8.41v2.07a.5.5,0,0,1-.56.57Zm2.21-5.24h1.71v-1h.38v1h1.71v.36H58.45v1.25h1.43v.34a4.88,4.88,0,0,1-1.27,2,7.16,7.16,0,0,0,1.76,1l-.2.31a7.45,7.45,0,0,1-1.83-1.11,6.61,6.61,0,0,1-2,1.12l-.18-.32a6.37,6.37,0,0,0,2-1,4.43,4.43,0,0,1-1.22-2h-.38v-.36h1.59V33.55H56.36Zm.86,2A4,4,0,0,0,58.34,37a4.62,4.62,0,0,0,1.18-1.79Z" transform="translate(-0.03)"/><path class="cls-22" d="M61.18,33.84h2.76V32.12h.38v1.72h2.77v.36H64.75a7.55,7.55,0,0,0,2.55,3.26l-.25.31a8.4,8.4,0,0,1-2.65-3.58h-.07v4.31h-.38V34.2h-.07a7.41,7.41,0,0,1-2.72,3.63l-.21-.33a7,7,0,0,0,2.58-3.3H61.18Zm4.26-1.71a9.52,9.52,0,0,1,1,1.18l-.3.21a8.9,8.9,0,0,0-1-1.2Z" transform="translate(-0.03)"/><path class="cls-22" d="M68.36,32.84h1v-.67h.36v.67h.78v.35h-.78V34h.49a9.36,9.36,0,0,0,1-1.55l.31.15A11.54,11.54,0,0,1,70.61,34h.62v.36h-.89q-.32.39-.66.72h1.25v.28a7.41,7.41,0,0,1-.85.87v.43q.69-.11,1.3-.27v.36q-.58.14-1.3.25v.91a.46.46,0,0,1-.52.53h-.72l-.1-.34.68,0c.2,0,.29-.11.29-.32v-.76q-.64.08-1.6.18L68,36.86q.9-.06,1.66-.15v-.56a5.35,5.35,0,0,0,.76-.71H69.29a7.93,7.93,0,0,1-1.16.8L67.9,36a9.49,9.49,0,0,0,.82-.53h-.34v-.35h.77a7.83,7.83,0,0,0,.74-.72H68V34h1.3v-.83h-1Zm5.78,5.66a7.41,7.41,0,0,1-1.34-1.64,5.22,5.22,0,0,1-1.65,1.64l-.22-.34a4.64,4.64,0,0,0,1.67-1.65,8,8,0,0,1-.75-2,5.93,5.93,0,0,1-.5.85l-.24-.28a7,7,0,0,0,1-3l.37.07a9.36,9.36,0,0,1-.21,1.06h1.87v.36h-.49A6.79,6.79,0,0,1,73,36.52a6.38,6.38,0,0,0,1.37,1.66ZM72.2,33.61l-.15.45a8.57,8.57,0,0,0,.74,2.08,6.41,6.41,0,0,0,.53-2.53Z" transform="translate(-0.03)"/><path class="cls-22" d="M76.25,34.67H80V35a14.18,14.18,0,0,1-1.62.9v.43h2.72v.36H78.4V38a.48.48,0,0,1-.55.53H77l-.1-.36h.83a.28.28,0,0,0,.31-.32V36.7H75.14v-.36H78v-.62A15.31,15.31,0,0,0,79.47,35H76.25ZM81,33.59v1.47h-.38V34H75.6v1.11h-.38V33.59h4a8.22,8.22,0,0,0,.84-1.5l.38.14a7.58,7.58,0,0,1-.8,1.36ZM76.09,32.2a9,9,0,0,1,.74,1.12l-.34.16a8.26,8.26,0,0,0-.75-1.12Zm1.71-.13a9.7,9.7,0,0,1,.66,1.16l-.34.18a8.13,8.13,0,0,0-.67-1.17Z" transform="translate(-0.03)"/></g></g></svg>